<svg id="visual" viewBox="0 0 500 113" width="500" height="113" xmlns="http://www.w3.org/2000/svg" xmlns:xlink="http://www.w3.org/1999/xlink" version="1.1"><rect x="0" y="0" width="500" height="113" fill="#e9ecef"></rect><path d="M0 58L20.8 53.8C41.7 49.7 83.3 41.3 125 42.8C166.7 44.3 208.3 55.7 250 56C291.7 56.3 333.3 45.7 375 44.8C416.7 44 458.3 53 479.2 57.5L500 62L500 0L479.2 0C458.3 0 416.7 0 375 0C333.3 0 291.7 0 250 0C208.3 0 166.7 0 125 0C83.3 0 41.7 0 20.8 0L0 0Z" fill="#f5f6fa" stroke-linecap="round" stroke-linejoin="miter"></path></svg>