<svg id="visual" viewBox="0 0 500 113" width="500" height="113" xmlns="http://www.w3.org/2000/svg" xmlns:xlink="http://www.w3.org/1999/xlink" version="1.1"><rect x="0" y="0" width="500" height="113" fill="#e9ecef"></rect><path d="M0 36L20.8 38C41.7 40 83.3 44 125 49.2C166.7 54.3 208.3 60.7 250 59.7C291.7 58.7 333.3 50.3 375 46.3C416.7 42.3 458.3 42.7 479.2 42.8L500 43L500 0L479.2 0C458.3 0 416.7 0 375 0C333.3 0 291.7 0 250 0C208.3 0 166.7 0 125 0C83.3 0 41.7 0 20.8 0L0 0Z" fill="#f5f6fa" stroke-linecap="round" stroke-linejoin="miter"></path></svg>