<svg width="30" height="30" viewBox="0 0 30 30" fill="none" xmlns="http://www.w3.org/2000/svg">
<circle cx="15" cy="15" r="14.5" stroke="#299054"/>
<path d="M15.5 8C13.7767 8.00184 12.1246 8.62329 10.9061 9.72801C9.68751 10.8327 9.00204 12.3305 9.00001 13.8929C8.99794 15.1696 9.45795 16.4117 10.3095 17.4286C10.3095 17.4286 10.4867 17.6402 10.5157 17.6707L15.5 23L20.4867 17.668C20.5127 17.6396 20.6905 17.4286 20.6905 17.4286L20.6911 17.427C21.5422 16.4105 22.002 15.169 22 13.8929C21.998 12.3305 21.3125 10.8327 20.0939 9.72801C18.8754 8.62329 17.2233 8.00184 15.5 8V8ZM15.5 16.0357C15.0325 16.0357 14.5755 15.91 14.1868 15.6746C13.7981 15.4391 13.4952 15.1044 13.3163 14.7129C13.1374 14.3213 13.0906 13.8905 13.1818 13.4748C13.273 13.0591 13.4981 12.6773 13.8287 12.3776C14.1592 12.0779 14.5804 11.8739 15.0389 11.7912C15.4974 11.7085 15.9726 11.7509 16.4045 11.9131C16.8364 12.0753 17.2056 12.35 17.4653 12.7023C17.725 13.0547 17.8636 13.469 17.8636 13.8929C17.8629 14.461 17.6136 15.0056 17.1705 15.4073C16.7274 15.809 16.1266 16.035 15.5 16.0357V16.0357Z" fill="#299054"/>
</svg>
