<svg width="77" height="77" viewBox="0 0 77 77" fill="none" xmlns="http://www.w3.org/2000/svg">
<circle cx="38.5" cy="38.5" r="38.5" fill="#299054"/>
<g clip-path="url(#clip0_404_198)">
<path d="M52 40.4V38C52 37.3635 51.7471 36.753 51.2971 36.303C50.847 35.8529 50.2365 35.6 49.6 35.6H25.6C24.9635 35.6 24.353 35.8529 23.9029 36.303C23.4529 36.753 23.2 37.3635 23.2 38V52.4C23.2 53.0365 23.4529 53.647 23.9029 54.0971C24.353 54.5472 24.9635 54.8 25.6 54.8H49.6C50.2365 54.8 50.847 54.5472 51.2971 54.0971C51.7471 53.647 52 53.0365 52 52.4V50M52 40.4H42.4C41.127 40.4 39.9061 40.9057 39.0059 41.8059C38.1057 42.7061 37.6 43.927 37.6 45.2C37.6 46.4731 38.1057 47.694 39.0059 48.5941C39.9061 49.4943 41.127 50 42.4 50H52M52 40.4C53.273 40.4 54.4939 40.9057 55.3941 41.8059C56.2943 42.7061 56.8 43.927 56.8 45.2C56.8 46.4731 56.2943 47.694 55.3941 48.5941C54.4939 49.4943 53.273 50 52 50M30.4 35.6V28.4C30.4 26.4905 31.1586 24.6591 32.5088 23.3088C33.8591 21.9586 35.6904 21.2 37.6 21.2C39.5096 21.2 41.3409 21.9586 42.6912 23.3088C44.0414 24.6591 44.8 26.4905 44.8 28.4V35.6M50.8 45.2H53.2M46 45.2H48.4M41.2 45.2H43.6" stroke="#F5F6FA" stroke-width="2"/>
</g>
<defs>
<clipPath id="clip0_404_198">
<rect width="36" height="36" fill="white" transform="translate(22 20)"/>
</clipPath>
</defs>
</svg>
